<mxfile host="app.diagrams.net" modified="2021-06-12T18:59:15.134Z" agent="5.0 (Macintosh; Intel Mac OS X 10_13_6) AppleWebKit/537.36 (KHTML, like Gecko) Chrome/91.0.4472.77 Safari/537.36" etag="lFcQn_ESkwW73aDff05Z" version="14.6.13" type="github">
  <diagram id="G4ZYphoTKEIYq6gut3OI" name="Page-1">
    <mxGraphModel dx="946" dy="614" grid="1" gridSize="10" guides="1" tooltips="1" connect="1" arrows="1" fold="1" page="1" pageScale="1" pageWidth="850" pageHeight="1100" math="0" shadow="0">
      <root>
        <mxCell id="0" />
        <mxCell id="1" parent="0" />
        <mxCell id="r0Q-pPDh2ajjUrzoxr5v-47" style="edgeStyle=orthogonalEdgeStyle;rounded=0;orthogonalLoop=1;jettySize=auto;html=1;exitX=1;exitY=0;exitDx=0;exitDy=0;entryX=0;entryY=0;entryDx=0;entryDy=27.5;entryPerimeter=0;fillColor=#dae8fc;strokeColor=#6c8ebf;" edge="1" parent="1" source="r0Q-pPDh2ajjUrzoxr5v-2" target="r0Q-pPDh2ajjUrzoxr5v-11">
          <mxGeometry relative="1" as="geometry">
            <Array as="points">
              <mxPoint x="420" y="210" />
              <mxPoint x="420" y="98" />
            </Array>
          </mxGeometry>
        </mxCell>
        <mxCell id="r0Q-pPDh2ajjUrzoxr5v-48" value="2" style="edgeLabel;html=1;align=center;verticalAlign=middle;resizable=0;points=[];" vertex="1" connectable="0" parent="r0Q-pPDh2ajjUrzoxr5v-47">
          <mxGeometry x="0.5644" y="-1" relative="1" as="geometry">
            <mxPoint y="1" as="offset" />
          </mxGeometry>
        </mxCell>
        <mxCell id="r0Q-pPDh2ajjUrzoxr5v-51" style="edgeStyle=orthogonalEdgeStyle;rounded=0;orthogonalLoop=1;jettySize=auto;html=1;exitX=0;exitY=1;exitDx=0;exitDy=0;entryX=1.025;entryY=0.888;entryDx=0;entryDy=0;entryPerimeter=0;fillColor=#dae8fc;strokeColor=#6c8ebf;" edge="1" parent="1" source="r0Q-pPDh2ajjUrzoxr5v-2" target="r0Q-pPDh2ajjUrzoxr5v-9">
          <mxGeometry relative="1" as="geometry" />
        </mxCell>
        <mxCell id="r0Q-pPDh2ajjUrzoxr5v-52" value="4" style="edgeLabel;html=1;align=center;verticalAlign=middle;resizable=0;points=[];" vertex="1" connectable="0" parent="r0Q-pPDh2ajjUrzoxr5v-51">
          <mxGeometry x="-0.1429" y="2" relative="1" as="geometry">
            <mxPoint as="offset" />
          </mxGeometry>
        </mxCell>
        <mxCell id="r0Q-pPDh2ajjUrzoxr5v-2" value="sync" style="rounded=0;whiteSpace=wrap;html=1;" vertex="1" parent="1">
          <mxGeometry x="280" y="210" width="120" height="60" as="geometry" />
        </mxCell>
        <mxCell id="r0Q-pPDh2ajjUrzoxr5v-16" style="edgeStyle=orthogonalEdgeStyle;rounded=0;orthogonalLoop=1;jettySize=auto;html=1;exitX=0.25;exitY=1;exitDx=0;exitDy=0;entryX=0.5;entryY=0;entryDx=0;entryDy=0;entryPerimeter=0;" edge="1" parent="1" source="r0Q-pPDh2ajjUrzoxr5v-3" target="r0Q-pPDh2ajjUrzoxr5v-7">
          <mxGeometry relative="1" as="geometry" />
        </mxCell>
        <mxCell id="r0Q-pPDh2ajjUrzoxr5v-17" value="3" style="edgeLabel;html=1;align=center;verticalAlign=middle;resizable=0;points=[];" vertex="1" connectable="0" parent="r0Q-pPDh2ajjUrzoxr5v-16">
          <mxGeometry x="-0.7429" y="1" relative="1" as="geometry">
            <mxPoint as="offset" />
          </mxGeometry>
        </mxCell>
        <mxCell id="r0Q-pPDh2ajjUrzoxr5v-18" value="4" style="edgeStyle=orthogonalEdgeStyle;rounded=0;orthogonalLoop=1;jettySize=auto;html=1;exitX=0.25;exitY=0;exitDx=0;exitDy=0;entryX=0.145;entryY=1;entryDx=0;entryDy=-4.35;entryPerimeter=0;" edge="1" parent="1" source="r0Q-pPDh2ajjUrzoxr5v-3" target="r0Q-pPDh2ajjUrzoxr5v-11">
          <mxGeometry relative="1" as="geometry" />
        </mxCell>
        <mxCell id="r0Q-pPDh2ajjUrzoxr5v-19" style="edgeStyle=orthogonalEdgeStyle;rounded=0;orthogonalLoop=1;jettySize=auto;html=1;exitX=0;exitY=0;exitDx=0;exitDy=0;" edge="1" parent="1" source="r0Q-pPDh2ajjUrzoxr5v-3" target="r0Q-pPDh2ajjUrzoxr5v-5">
          <mxGeometry relative="1" as="geometry" />
        </mxCell>
        <mxCell id="r0Q-pPDh2ajjUrzoxr5v-20" value="5" style="edgeLabel;html=1;align=center;verticalAlign=middle;resizable=0;points=[];" vertex="1" connectable="0" parent="r0Q-pPDh2ajjUrzoxr5v-19">
          <mxGeometry x="0.4" relative="1" as="geometry">
            <mxPoint as="offset" />
          </mxGeometry>
        </mxCell>
        <mxCell id="r0Q-pPDh2ajjUrzoxr5v-31" style="edgeStyle=orthogonalEdgeStyle;rounded=0;orthogonalLoop=1;jettySize=auto;html=1;exitX=0.5;exitY=0;exitDx=0;exitDy=0;entryX=0.5;entryY=1;entryDx=0;entryDy=0;entryPerimeter=0;fillColor=#f8cecc;strokeColor=#b85450;" edge="1" parent="1" source="r0Q-pPDh2ajjUrzoxr5v-3" target="r0Q-pPDh2ajjUrzoxr5v-11">
          <mxGeometry relative="1" as="geometry" />
        </mxCell>
        <mxCell id="r0Q-pPDh2ajjUrzoxr5v-32" value="5" style="edgeLabel;html=1;align=center;verticalAlign=middle;resizable=0;points=[];" vertex="1" connectable="0" parent="r0Q-pPDh2ajjUrzoxr5v-31">
          <mxGeometry x="-0.4857" relative="1" as="geometry">
            <mxPoint as="offset" />
          </mxGeometry>
        </mxCell>
        <mxCell id="r0Q-pPDh2ajjUrzoxr5v-35" style="edgeStyle=orthogonalEdgeStyle;rounded=0;orthogonalLoop=1;jettySize=auto;html=1;exitX=0;exitY=0.75;exitDx=0;exitDy=0;entryX=1;entryY=0.25;entryDx=0;entryDy=0;fillColor=#f8cecc;strokeColor=#b85450;" edge="1" parent="1" source="r0Q-pPDh2ajjUrzoxr5v-3" target="r0Q-pPDh2ajjUrzoxr5v-4">
          <mxGeometry relative="1" as="geometry" />
        </mxCell>
        <mxCell id="r0Q-pPDh2ajjUrzoxr5v-36" value="7" style="edgeLabel;html=1;align=center;verticalAlign=middle;resizable=0;points=[];" vertex="1" connectable="0" parent="r0Q-pPDh2ajjUrzoxr5v-35">
          <mxGeometry x="0.3579" relative="1" as="geometry">
            <mxPoint as="offset" />
          </mxGeometry>
        </mxCell>
        <mxCell id="r0Q-pPDh2ajjUrzoxr5v-3" value="split and merge" style="rounded=0;whiteSpace=wrap;html=1;" vertex="1" parent="1">
          <mxGeometry x="500" y="210" width="120" height="60" as="geometry" />
        </mxCell>
        <mxCell id="r0Q-pPDh2ajjUrzoxr5v-25" style="edgeStyle=orthogonalEdgeStyle;rounded=0;orthogonalLoop=1;jettySize=auto;html=1;exitX=1;exitY=1;exitDx=0;exitDy=0;entryX=0;entryY=0;entryDx=0;entryDy=27.5;entryPerimeter=0;fillColor=#f8cecc;strokeColor=#b85450;" edge="1" parent="1" source="r0Q-pPDh2ajjUrzoxr5v-4" target="r0Q-pPDh2ajjUrzoxr5v-7">
          <mxGeometry relative="1" as="geometry" />
        </mxCell>
        <mxCell id="r0Q-pPDh2ajjUrzoxr5v-26" value="2" style="edgeLabel;html=1;align=center;verticalAlign=middle;resizable=0;points=[];" vertex="1" connectable="0" parent="r0Q-pPDh2ajjUrzoxr5v-25">
          <mxGeometry x="-0.2657" relative="1" as="geometry">
            <mxPoint x="1" y="1" as="offset" />
          </mxGeometry>
        </mxCell>
        <mxCell id="r0Q-pPDh2ajjUrzoxr5v-29" style="edgeStyle=orthogonalEdgeStyle;rounded=0;orthogonalLoop=1;jettySize=auto;html=1;entryX=0.058;entryY=1.067;entryDx=0;entryDy=0;entryPerimeter=0;fillColor=#f8cecc;strokeColor=#b85450;" edge="1" parent="1" source="r0Q-pPDh2ajjUrzoxr5v-4" target="r0Q-pPDh2ajjUrzoxr5v-3">
          <mxGeometry relative="1" as="geometry" />
        </mxCell>
        <mxCell id="r0Q-pPDh2ajjUrzoxr5v-30" value="4" style="edgeLabel;html=1;align=center;verticalAlign=middle;resizable=0;points=[];" vertex="1" connectable="0" parent="r0Q-pPDh2ajjUrzoxr5v-29">
          <mxGeometry x="0.3577" y="2" relative="1" as="geometry">
            <mxPoint as="offset" />
          </mxGeometry>
        </mxCell>
        <mxCell id="r0Q-pPDh2ajjUrzoxr5v-37" style="edgeStyle=orthogonalEdgeStyle;rounded=0;orthogonalLoop=1;jettySize=auto;html=1;exitX=0;exitY=0.25;exitDx=0;exitDy=0;entryX=0.5;entryY=1;entryDx=0;entryDy=0;fillColor=#f8cecc;strokeColor=#b85450;" edge="1" parent="1" source="r0Q-pPDh2ajjUrzoxr5v-4" target="r0Q-pPDh2ajjUrzoxr5v-9">
          <mxGeometry relative="1" as="geometry" />
        </mxCell>
        <mxCell id="r0Q-pPDh2ajjUrzoxr5v-38" value="8" style="edgeLabel;html=1;align=center;verticalAlign=middle;resizable=0;points=[];" vertex="1" connectable="0" parent="r0Q-pPDh2ajjUrzoxr5v-37">
          <mxGeometry x="0.4316" y="-4" relative="1" as="geometry">
            <mxPoint as="offset" />
          </mxGeometry>
        </mxCell>
        <mxCell id="r0Q-pPDh2ajjUrzoxr5v-4" value="download" style="rounded=0;whiteSpace=wrap;html=1;" vertex="1" parent="1">
          <mxGeometry x="280" y="330" width="120" height="60" as="geometry" />
        </mxCell>
        <mxCell id="r0Q-pPDh2ajjUrzoxr5v-14" style="edgeStyle=orthogonalEdgeStyle;rounded=0;orthogonalLoop=1;jettySize=auto;html=1;exitX=1;exitY=0.5;exitDx=0;exitDy=0;entryX=0;entryY=0.25;entryDx=0;entryDy=0;" edge="1" parent="1" source="r0Q-pPDh2ajjUrzoxr5v-5" target="r0Q-pPDh2ajjUrzoxr5v-3">
          <mxGeometry relative="1" as="geometry" />
        </mxCell>
        <mxCell id="r0Q-pPDh2ajjUrzoxr5v-21" style="edgeStyle=orthogonalEdgeStyle;rounded=0;orthogonalLoop=1;jettySize=auto;html=1;exitX=0;exitY=1;exitDx=0;exitDy=0;entryX=0.588;entryY=-0.05;entryDx=0;entryDy=0;entryPerimeter=0;" edge="1" parent="1" source="r0Q-pPDh2ajjUrzoxr5v-5" target="r0Q-pPDh2ajjUrzoxr5v-9">
          <mxGeometry relative="1" as="geometry" />
        </mxCell>
        <mxCell id="r0Q-pPDh2ajjUrzoxr5v-22" value="6" style="edgeLabel;html=1;align=center;verticalAlign=middle;resizable=0;points=[];" vertex="1" connectable="0" parent="r0Q-pPDh2ajjUrzoxr5v-21">
          <mxGeometry x="0.6064" y="-1" relative="1" as="geometry">
            <mxPoint as="offset" />
          </mxGeometry>
        </mxCell>
        <mxCell id="r0Q-pPDh2ajjUrzoxr5v-5" value="upoad" style="rounded=0;whiteSpace=wrap;html=1;" vertex="1" parent="1">
          <mxGeometry x="280" y="100" width="120" height="60" as="geometry" />
        </mxCell>
        <mxCell id="r0Q-pPDh2ajjUrzoxr5v-6" value="upload(userId, file)&lt;br&gt;" style="text;html=1;align=center;verticalAlign=middle;resizable=0;points=[];autosize=1;strokeColor=none;" vertex="1" parent="1">
          <mxGeometry x="155" y="80" width="110" height="20" as="geometry" />
        </mxCell>
        <mxCell id="r0Q-pPDh2ajjUrzoxr5v-27" style="edgeStyle=orthogonalEdgeStyle;rounded=0;orthogonalLoop=1;jettySize=auto;html=1;exitX=0;exitY=0;exitDx=0;exitDy=15;exitPerimeter=0;entryX=1;entryY=0.75;entryDx=0;entryDy=0;fillColor=#f8cecc;strokeColor=#b85450;" edge="1" parent="1" source="r0Q-pPDh2ajjUrzoxr5v-7" target="r0Q-pPDh2ajjUrzoxr5v-4">
          <mxGeometry relative="1" as="geometry" />
        </mxCell>
        <mxCell id="r0Q-pPDh2ajjUrzoxr5v-28" value="3" style="edgeLabel;html=1;align=center;verticalAlign=middle;resizable=0;points=[];" vertex="1" connectable="0" parent="r0Q-pPDh2ajjUrzoxr5v-27">
          <mxGeometry x="-0.3176" y="-1" relative="1" as="geometry">
            <mxPoint as="offset" />
          </mxGeometry>
        </mxCell>
        <mxCell id="r0Q-pPDh2ajjUrzoxr5v-7" value="file meta db" style="shape=cylinder3;whiteSpace=wrap;html=1;boundedLbl=1;backgroundOutline=1;size=15;" vertex="1" parent="1">
          <mxGeometry x="540" y="370" width="60" height="80" as="geometry" />
        </mxCell>
        <mxCell id="r0Q-pPDh2ajjUrzoxr5v-8" value="file-meta&lt;br&gt;-----------&lt;br&gt;file_id&lt;br&gt;block-ids[]&lt;br&gt;user-devices" style="text;html=1;strokeColor=none;fillColor=none;align=center;verticalAlign=middle;whiteSpace=wrap;rounded=0;" vertex="1" parent="1">
          <mxGeometry x="440" y="440" width="80" height="100" as="geometry" />
        </mxCell>
        <mxCell id="r0Q-pPDh2ajjUrzoxr5v-23" style="edgeStyle=orthogonalEdgeStyle;rounded=0;orthogonalLoop=1;jettySize=auto;html=1;exitX=1;exitY=1;exitDx=0;exitDy=0;entryX=0;entryY=0.5;entryDx=0;entryDy=0;fillColor=#f8cecc;strokeColor=#b85450;" edge="1" parent="1" source="r0Q-pPDh2ajjUrzoxr5v-9" target="r0Q-pPDh2ajjUrzoxr5v-4">
          <mxGeometry relative="1" as="geometry" />
        </mxCell>
        <mxCell id="r0Q-pPDh2ajjUrzoxr5v-24" value="1" style="edgeLabel;html=1;align=center;verticalAlign=middle;resizable=0;points=[];" vertex="1" connectable="0" parent="r0Q-pPDh2ajjUrzoxr5v-23">
          <mxGeometry x="0.4333" relative="1" as="geometry">
            <mxPoint as="offset" />
          </mxGeometry>
        </mxCell>
        <mxCell id="r0Q-pPDh2ajjUrzoxr5v-40" style="edgeStyle=orthogonalEdgeStyle;rounded=0;orthogonalLoop=1;jettySize=auto;html=1;exitX=1;exitY=0.5;exitDx=0;exitDy=0;entryX=0;entryY=0.5;entryDx=0;entryDy=0;fillColor=#dae8fc;strokeColor=#6c8ebf;" edge="1" parent="1" source="r0Q-pPDh2ajjUrzoxr5v-9" target="r0Q-pPDh2ajjUrzoxr5v-2">
          <mxGeometry relative="1" as="geometry" />
        </mxCell>
        <mxCell id="r0Q-pPDh2ajjUrzoxr5v-41" value="1" style="edgeLabel;html=1;align=center;verticalAlign=middle;resizable=0;points=[];" vertex="1" connectable="0" parent="r0Q-pPDh2ajjUrzoxr5v-40">
          <mxGeometry x="-0.2" y="1" relative="1" as="geometry">
            <mxPoint as="offset" />
          </mxGeometry>
        </mxCell>
        <mxCell id="r0Q-pPDh2ajjUrzoxr5v-9" value="client" style="whiteSpace=wrap;html=1;aspect=fixed;" vertex="1" parent="1">
          <mxGeometry x="20" y="200" width="80" height="80" as="geometry" />
        </mxCell>
        <mxCell id="r0Q-pPDh2ajjUrzoxr5v-33" style="edgeStyle=orthogonalEdgeStyle;rounded=0;orthogonalLoop=1;jettySize=auto;html=1;exitX=0.855;exitY=1;exitDx=0;exitDy=-4.35;exitPerimeter=0;entryX=0.75;entryY=0;entryDx=0;entryDy=0;fillColor=#f8cecc;strokeColor=#b85450;" edge="1" parent="1" source="r0Q-pPDh2ajjUrzoxr5v-11" target="r0Q-pPDh2ajjUrzoxr5v-3">
          <mxGeometry relative="1" as="geometry" />
        </mxCell>
        <mxCell id="r0Q-pPDh2ajjUrzoxr5v-34" value="6" style="edgeLabel;html=1;align=center;verticalAlign=middle;resizable=0;points=[];" vertex="1" connectable="0" parent="r0Q-pPDh2ajjUrzoxr5v-33">
          <mxGeometry x="-0.1363" y="-1" relative="1" as="geometry">
            <mxPoint as="offset" />
          </mxGeometry>
        </mxCell>
        <mxCell id="r0Q-pPDh2ajjUrzoxr5v-49" style="edgeStyle=orthogonalEdgeStyle;rounded=0;orthogonalLoop=1;jettySize=auto;html=1;exitX=0;exitY=0;exitDx=0;exitDy=52.5;exitPerimeter=0;fillColor=#dae8fc;strokeColor=#6c8ebf;entryX=1;entryY=0.5;entryDx=0;entryDy=0;" edge="1" parent="1" source="r0Q-pPDh2ajjUrzoxr5v-11" target="r0Q-pPDh2ajjUrzoxr5v-2">
          <mxGeometry relative="1" as="geometry">
            <mxPoint x="410" y="240" as="targetPoint" />
            <Array as="points">
              <mxPoint x="470" y="123" />
              <mxPoint x="470" y="240" />
            </Array>
          </mxGeometry>
        </mxCell>
        <mxCell id="r0Q-pPDh2ajjUrzoxr5v-50" value="3" style="edgeLabel;html=1;align=center;verticalAlign=middle;resizable=0;points=[];" vertex="1" connectable="0" parent="r0Q-pPDh2ajjUrzoxr5v-49">
          <mxGeometry x="-0.6183" y="1" relative="1" as="geometry">
            <mxPoint as="offset" />
          </mxGeometry>
        </mxCell>
        <mxCell id="r0Q-pPDh2ajjUrzoxr5v-11" value="object storage" style="shape=cylinder3;whiteSpace=wrap;html=1;boundedLbl=1;backgroundOutline=1;size=15;" vertex="1" parent="1">
          <mxGeometry x="540" y="70" width="60" height="80" as="geometry" />
        </mxCell>
        <mxCell id="r0Q-pPDh2ajjUrzoxr5v-12" value="" style="endArrow=classic;html=1;entryX=0;entryY=0.5;entryDx=0;entryDy=0;" edge="1" parent="1" target="r0Q-pPDh2ajjUrzoxr5v-5">
          <mxGeometry width="50" height="50" relative="1" as="geometry">
            <mxPoint x="100" y="220" as="sourcePoint" />
            <mxPoint x="150" y="170" as="targetPoint" />
          </mxGeometry>
        </mxCell>
        <mxCell id="r0Q-pPDh2ajjUrzoxr5v-13" value="1" style="text;html=1;align=center;verticalAlign=middle;resizable=0;points=[];autosize=1;strokeColor=none;" vertex="1" parent="1">
          <mxGeometry x="210" y="140" width="20" height="20" as="geometry" />
        </mxCell>
        <mxCell id="r0Q-pPDh2ajjUrzoxr5v-15" value="2" style="text;html=1;align=center;verticalAlign=middle;resizable=0;points=[];autosize=1;strokeColor=none;" vertex="1" parent="1">
          <mxGeometry x="420" y="130" width="20" height="20" as="geometry" />
        </mxCell>
        <mxCell id="r0Q-pPDh2ajjUrzoxr5v-39" value="download(file,user-ids)" style="text;html=1;align=center;verticalAlign=middle;resizable=0;points=[];autosize=1;strokeColor=none;" vertex="1" parent="1">
          <mxGeometry x="120" y="380" width="140" height="20" as="geometry" />
        </mxCell>
        <mxCell id="r0Q-pPDh2ajjUrzoxr5v-42" value="sync(file-id, block-ids[])" style="text;html=1;align=center;verticalAlign=middle;resizable=0;points=[];autosize=1;strokeColor=none;" vertex="1" parent="1">
          <mxGeometry x="110" y="240" width="140" height="20" as="geometry" />
        </mxCell>
        <mxCell id="r0Q-pPDh2ajjUrzoxr5v-55" value="" style="rounded=1;whiteSpace=wrap;html=1;" vertex="1" parent="1">
          <mxGeometry x="50" y="560" width="530" height="230" as="geometry" />
        </mxCell>
        <mxCell id="r0Q-pPDh2ajjUrzoxr5v-56" value="Client" style="text;html=1;align=center;verticalAlign=middle;resizable=0;points=[];autosize=1;strokeColor=none;" vertex="1" parent="1">
          <mxGeometry x="260" y="540" width="50" height="20" as="geometry" />
        </mxCell>
        <mxCell id="r0Q-pPDh2ajjUrzoxr5v-67" style="edgeStyle=orthogonalEdgeStyle;rounded=0;orthogonalLoop=1;jettySize=auto;html=1;exitX=0.75;exitY=1;exitDx=0;exitDy=0;entryX=0;entryY=0;entryDx=0;entryDy=0;" edge="1" parent="1" source="r0Q-pPDh2ajjUrzoxr5v-58" target="r0Q-pPDh2ajjUrzoxr5v-62">
          <mxGeometry relative="1" as="geometry" />
        </mxCell>
        <mxCell id="r0Q-pPDh2ajjUrzoxr5v-58" value="chunker( splits file into small pieces)" style="rounded=0;whiteSpace=wrap;html=1;" vertex="1" parent="1">
          <mxGeometry x="100" y="570" width="120" height="60" as="geometry" />
        </mxCell>
        <mxCell id="r0Q-pPDh2ajjUrzoxr5v-59" value="meta-data&amp;nbsp;" style="shape=cylinder3;whiteSpace=wrap;html=1;boundedLbl=1;backgroundOutline=1;size=15;" vertex="1" parent="1">
          <mxGeometry x="60" y="690" width="60" height="80" as="geometry" />
        </mxCell>
        <mxCell id="r0Q-pPDh2ajjUrzoxr5v-60" value="file-meta&lt;br&gt;-------&lt;br&gt;file-id&lt;br&gt;block-ids[]" style="text;html=1;strokeColor=none;fillColor=none;align=center;verticalAlign=middle;whiteSpace=wrap;rounded=0;" vertex="1" parent="1">
          <mxGeometry x="120" y="720" width="60" height="80" as="geometry" />
        </mxCell>
        <mxCell id="r0Q-pPDh2ajjUrzoxr5v-66" style="edgeStyle=orthogonalEdgeStyle;rounded=0;orthogonalLoop=1;jettySize=auto;html=1;exitX=0.5;exitY=1;exitDx=0;exitDy=0;entryX=1;entryY=0.25;entryDx=0;entryDy=0;" edge="1" parent="1" source="r0Q-pPDh2ajjUrzoxr5v-61" target="r0Q-pPDh2ajjUrzoxr5v-62">
          <mxGeometry relative="1" as="geometry" />
        </mxCell>
        <mxCell id="r0Q-pPDh2ajjUrzoxr5v-61" value="watcher(listens to file changes on server)" style="rounded=0;whiteSpace=wrap;html=1;" vertex="1" parent="1">
          <mxGeometry x="360" y="570" width="120" height="60" as="geometry" />
        </mxCell>
        <mxCell id="r0Q-pPDh2ajjUrzoxr5v-65" style="edgeStyle=orthogonalEdgeStyle;rounded=0;orthogonalLoop=1;jettySize=auto;html=1;exitX=1;exitY=0;exitDx=0;exitDy=0;entryX=0.25;entryY=1;entryDx=0;entryDy=0;" edge="1" parent="1" source="r0Q-pPDh2ajjUrzoxr5v-62" target="r0Q-pPDh2ajjUrzoxr5v-61">
          <mxGeometry relative="1" as="geometry" />
        </mxCell>
        <mxCell id="r0Q-pPDh2ajjUrzoxr5v-68" style="edgeStyle=orthogonalEdgeStyle;rounded=0;orthogonalLoop=1;jettySize=auto;html=1;exitX=0.25;exitY=0;exitDx=0;exitDy=0;entryX=1;entryY=0.75;entryDx=0;entryDy=0;" edge="1" parent="1" source="r0Q-pPDh2ajjUrzoxr5v-62" target="r0Q-pPDh2ajjUrzoxr5v-58">
          <mxGeometry relative="1" as="geometry" />
        </mxCell>
        <mxCell id="r0Q-pPDh2ajjUrzoxr5v-72" style="edgeStyle=orthogonalEdgeStyle;rounded=0;orthogonalLoop=1;jettySize=auto;html=1;exitX=1;exitY=0.75;exitDx=0;exitDy=0;entryX=0;entryY=0.5;entryDx=0;entryDy=0;" edge="1" parent="1" source="r0Q-pPDh2ajjUrzoxr5v-62" target="r0Q-pPDh2ajjUrzoxr5v-69">
          <mxGeometry relative="1" as="geometry" />
        </mxCell>
        <mxCell id="r0Q-pPDh2ajjUrzoxr5v-62" value="indexer(maintains meta db acc to events from server)" style="rounded=0;whiteSpace=wrap;html=1;" vertex="1" parent="1">
          <mxGeometry x="220" y="690" width="120" height="60" as="geometry" />
        </mxCell>
        <mxCell id="r0Q-pPDh2ajjUrzoxr5v-63" value="" style="endArrow=classic;html=1;" edge="1" parent="1">
          <mxGeometry width="50" height="50" relative="1" as="geometry">
            <mxPoint x="220" y="700" as="sourcePoint" />
            <mxPoint x="130" y="710" as="targetPoint" />
          </mxGeometry>
        </mxCell>
        <mxCell id="r0Q-pPDh2ajjUrzoxr5v-64" value="" style="endArrow=classic;html=1;exitX=0.25;exitY=0;exitDx=0;exitDy=0;" edge="1" parent="1" source="r0Q-pPDh2ajjUrzoxr5v-60" target="r0Q-pPDh2ajjUrzoxr5v-62">
          <mxGeometry width="50" height="50" relative="1" as="geometry">
            <mxPoint x="230" y="710" as="sourcePoint" />
            <mxPoint x="140" y="720" as="targetPoint" />
          </mxGeometry>
        </mxCell>
        <mxCell id="r0Q-pPDh2ajjUrzoxr5v-69" value="uplader(uploads to server)" style="rounded=0;whiteSpace=wrap;html=1;" vertex="1" parent="1">
          <mxGeometry x="420" y="710" width="120" height="60" as="geometry" />
        </mxCell>
        <mxCell id="r0Q-pPDh2ajjUrzoxr5v-73" value="mata db - rdbms as it provides ACID properties" style="text;html=1;align=center;verticalAlign=middle;resizable=0;points=[];autosize=1;strokeColor=none;" vertex="1" parent="1">
          <mxGeometry x="20" y="430" width="260" height="20" as="geometry" />
        </mxCell>
        <mxCell id="r0Q-pPDh2ajjUrzoxr5v-74" value="S3" style="text;html=1;align=center;verticalAlign=middle;resizable=0;points=[];autosize=1;strokeColor=none;" vertex="1" parent="1">
          <mxGeometry x="605" y="90" width="30" height="20" as="geometry" />
        </mxCell>
        <mxCell id="r0Q-pPDh2ajjUrzoxr5v-75" value="" style="endArrow=classic;startArrow=classic;html=1;entryX=-0.05;entryY=0.1;entryDx=0;entryDy=0;entryPerimeter=0;exitX=1;exitY=1;exitDx=0;exitDy=0;" edge="1" parent="1" source="r0Q-pPDh2ajjUrzoxr5v-2" target="r0Q-pPDh2ajjUrzoxr5v-7">
          <mxGeometry width="50" height="50" relative="1" as="geometry">
            <mxPoint x="400" y="310" as="sourcePoint" />
            <mxPoint x="450" y="260" as="targetPoint" />
          </mxGeometry>
        </mxCell>
      </root>
    </mxGraphModel>
  </diagram>
</mxfile>
